<?xml version="1.0" encoding="utf-8"?>
<!-- Generator: Adobe Illustrator 18.1.1, SVG Export Plug-In . SVG Version: 6.00 Build 0)  -->
<svg version="1.1" id="Layer_1" xmlns="http://www.w3.org/2000/svg" xmlns:xlink="http://www.w3.org/1999/xlink" x="0px" y="0px"
	 viewBox="0 0 1000 1000" enable-background="new 0 0 1000 1000" xml:space="preserve">
<g id="Layer_1_1_">
	<g>
		<g>
			<g>
				<path fill="#FFFFFF" d="M659.8,380.8l-156-107.4L431,225.6c-13.9-9.2-29.8-19.9-46.6-19.9c-27.1,0-34.2,15.9-50.5,37l-39.8,47.8
					l-26.3,30.6c-11.1,16.7,11.5,47.4,21.1,64.9l45,98.3l-2.4,288.9c-0.4,12.3,16.3,37.8,23.9,47.8l55.7,45c9.9,5.2,0.8,1.6,9.6,4
					c0.4,0,0.8,0,1.2,0c0.4-0.4,0.8-0.4,1.2-0.8c0.8-1.2,2.4-2.8,4.8-5.6c9.9-10.3-0.8-97.1-1.2-111.8l25.1-25.1l191-179.1
					c7.2-6.8,14.3-14.7,16.7-24.3l31-111C697.2,390,679.7,393.6,659.8,380.8z M626.3,518.9l-199,190.6
					c-10.7,10.3-17.1,25.1-16.7,40.2l2.4,95.9l-52.1-67.3l8.4-291.3c0.4-9.6-2-19.1-6.8-27.5l-65.7-119.4l58.1-87.1
					c6-9.2,15.9-14.3,26.7-14.3c6.4,0,12.3,1.6,17.5,5.2l256.3,165.5L626.3,518.9z"/>
				<path fill="#FFFFFF" d="M-490.6-193"/>
				<path fill="#FFFFFF" d="M161.6,145.6"/>
			</g>
			<polygon fill="#FFFFFF" points="542.8,317.9 658.6,101.5 758.5,75.2 758.5,110.2 663,133.3 573.4,335.5 			"/>
			<polygon fill="#FFFFFF" points="456,890.2 456,915.2 441.7,898.1 			"/>
			<polygon fill="#FFFFFF" points="464,898.1 464,910.1 475.1,904.1 			"/>
			<polygon fill="#FFFFFF" points="452.4,898.1 452.4,905.7 447.3,899.7 			"/>
			<polygon fill="#FFFFFF" points="466.4,902.5 466,905.7 470.4,903.7 			"/>
		</g>
	</g>
</g>
<g id="Layer_2" display="none">
</g>
</svg>
