<?xml version="1.0" encoding="utf-8"?>
<!-- Generator: Adobe Illustrator 18.1.1, SVG Export Plug-In . SVG Version: 6.00 Build 0)  -->
<svg version="1.1" xmlns="http://www.w3.org/2000/svg" xmlns:xlink="http://www.w3.org/1999/xlink" x="0px" y="0px"
	 viewBox="0 0 206.7 251.3" enable-background="new 0 0 206.7 251.3" xml:space="preserve">
<g id="Layer_1">
	<g>
		<g>
			<g>
				<path d="M143.5,95.7l-39.2-27L86,56.7c-3.5-2.3-7.5-5-11.7-5c-6.8,0-8.6,4-12.7,9.3l-10,12L45,80.7c-2.8,4.2,2.9,11.9,5.3,16.3
					l11.3,24.7L61,194.3c-0.1,3.1,4.1,9.5,6,12l14,11.3c2.5,1.3,0.2,0.4,2.4,1c0.1,0,0.2,0,0.3,0c0.1-0.1,0.2-0.1,0.3-0.2
					c0.2-0.3,0.6-0.7,1.2-1.4c2.5-2.6-0.2-24.4-0.3-28.1l6.3-6.3l48-45c1.8-1.7,3.6-3.7,4.2-6.1l7.8-27.9
					C152.9,98,148.5,98.9,143.5,95.7z M135.1,130.4l-50,47.9c-2.7,2.6-4.3,6.3-4.2,10.1l0.6,24.1l-13.1-16.9l2.1-73.2
					c0.1-2.4-0.5-4.8-1.7-6.9l-16.5-30l14.6-21.9c1.5-2.3,4-3.6,6.7-3.6c1.6,0,3.1,0.4,4.4,1.3l64.4,41.6L135.1,130.4z"/>
				<path d="M-145.6-48.5"/>
				<path d="M18.3,36.6"/>
			</g>
			<polygon points="114.1,79.9 143.2,25.5 168.3,18.9 168.3,27.7 144.3,33.5 121.8,84.3 114.1,79.9 			"/>
			<polygon points="92.3,223.7 92.3,230 88.7,225.7 			"/>
			<polygon points="94.3,225.7 94.3,228.7 97.1,227.2 			"/>
			<polygon fill="#FFFFFF" points="91.4,225.7 91.4,227.6 90.1,226.1 			"/>
			<polygon fill="#FFFFFF" points="94.9,226.8 94.8,227.6 95.9,227.1 			"/>
		</g>
	</g>
</g>
<g id="Layer_2" display="none">
</g>
</svg>
