<?xml version="1.0" encoding="utf-8"?>
<!-- Generator: Adobe Illustrator 18.1.1, SVG Export Plug-In . SVG Version: 6.00 Build 0)  -->
<svg version="1.1" id="Layer_1" xmlns="http://www.w3.org/2000/svg" xmlns:xlink="http://www.w3.org/1999/xlink" x="0px" y="0px"
	 viewBox="0 0 1000 1000" enable-background="new 0 0 1000 1000" xml:space="preserve">
<g id="Layer_1_1_">
	<g>
		
			<text transform="matrix(1 0 0 1 444.8198 597.7305)" fill="#FFFFFF" font-family="'Inter-Regular'" font-size="218.75" letter-spacing="-9">Mate</text>
		<g>
			<g>
				<path fill="#FFFFFF" d="M224.2,453.2L163,411l-28.6-18.8c-5.5-3.6-11.7-7.8-18.3-7.8c-10.6,0-13.4,6.3-19.8,14.5l-15.6,18.8
					l-10.3,12c-4.4,6.6,4.5,18.6,8.3,25.5l17.7,38.6l-0.9,113.4c-0.2,4.8,6.4,14.8,9.4,18.8l21.9,17.7c3.9,2,0.3,0.6,3.8,1.6
					c0.2,0,0.3,0,0.5,0c0.2-0.2,0.3-0.2,0.5-0.3c0.3-0.5,0.9-1.1,1.9-2.2c3.9-4.1-0.3-38.1-0.5-43.9l9.8-9.8l75-70.3
					c2.8-2.7,5.6-5.8,6.6-9.5l12.2-43.6C238.9,456.8,232,458.2,224.2,453.2z M211.1,507.4L133,582.3c-4.2,4.1-6.7,9.8-6.6,15.8
					l0.9,37.7l-20.5-26.4l3.3-114.4c0.2-3.8-0.8-7.5-2.7-10.8l-25.8-46.9l22.8-34.2c2.3-3.6,6.3-5.6,10.5-5.6c2.5,0,4.8,0.6,6.9,2
					l100.6,65L211.1,507.4z"/>
				<path fill="#FFFFFF" d="M-227.5,227.9"/>
				<path fill="#FFFFFF" d="M28.6,360.9"/>
			</g>
			<polygon fill="#FFFFFF" points="178.3,428.5 223.8,343.5 263,333.2 263,347 225.5,356 190.3,435.4 			"/>
			<polygon fill="#FFFFFF" points="144.2,653.2 144.2,663 138.6,656.3 			"/>
			<polygon fill="#FFFFFF" points="147.3,656.3 147.3,661 151.7,658.7 			"/>
			<polygon fill="#FFFFFF" points="142.8,656.3 142.8,659.3 140.8,657 			"/>
			<polygon fill="#FFFFFF" points="148.3,658 148.1,659.3 149.8,658.5 			"/>
		</g>
		
			<text transform="matrix(1 0 0 1 245.8336 598.9844)" fill="#FFFFFF" font-family="'Inter-Regular'" font-size="218.75" letter-spacing="-9">cli</text>
	</g>
</g>
<g id="Layer_2" display="none">
</g>
</svg>
