<svg width="9" height="9" viewBox="0 0 9 9" fill="none" xmlns="http://www.w3.org/2000/svg">
<path d="M4.746 0.291794C4.60713 0.159958 4.39092 0.159958 4.25205 0.291794C4.12549 0.413083 1.12842 3.27832 1.12842 5.20312C1.12842 7.18945 2.64014 8.80664 4.4999 8.80664C6.35791 8.80664 7.87139 7.18945 7.87139 5.20312C7.87139 3.27832 4.87432 0.413083 4.746 0.291794ZM4.4999 8.08945C3.0374 8.08945 1.84736 6.79394 1.84736 5.20312C1.84736 3.98144 3.58057 1.98281 4.4999 1.05468C5.41924 1.98281 7.15244 3.98144 7.15244 5.20312C7.15244 6.79394 5.9624 8.08945 4.4999 8.08945Z" fill="white"/>
<path d="M3.13239 5.12754C3.13591 4.93067 2.98122 4.76719 2.78259 4.76192C2.77907 4.76192 2.77556 4.76192 2.7738 4.76192C2.58044 4.76192 2.42048 4.9166 2.4152 5.11172C2.41345 5.15215 2.39059 6.12774 3.16227 6.93633C3.33454 7.11739 3.59997 7.01719 3.67028 6.95215C3.81442 6.8168 3.82145 6.59004 3.6861 6.44414C3.13063 5.85528 3.13239 5.14336 3.13239 5.12754Z" fill="white"/>
</svg>
