<?xml version="1.0" encoding="utf-8"?>
<!-- Generator: Adobe Illustrator 18.1.1, SVG Export Plug-In . SVG Version: 6.00 Build 0)  -->
<svg version="1.1" xmlns="http://www.w3.org/2000/svg" xmlns:xlink="http://www.w3.org/1999/xlink" x="0px" y="0px"
	 viewBox="30 -26.4 120.3 110.4" enable-background="new 30 -26.4 120.3 110.4" xml:space="preserve">
<g id="Layer_2" display="none">
	<path display="inline" fill="#7A491B" d="M101.9,2c-0.8,0-1.5-0.7-1.5-1.5v-16.8c0-0.8,0.7-1.5,1.5-1.5c0.8,0,1.5,0.7,1.5,1.5V0.5
		C103.4,1.4,102.7,2,101.9,2z"/>
	<path display="inline" fill="#7A491B" d="M75.2,28.7H58.4c-0.8,0-1.5-0.7-1.5-1.5s0.7-1.5,1.5-1.5h16.8c0.8,0,1.5,0.7,1.5,1.5
		S76,28.7,75.2,28.7z"/>
	<path display="inline" fill="#7A491B" d="M145.3,28.7h-16.8c-0.8,0-1.5-0.7-1.5-1.5s0.7-1.5,1.5-1.5h16.8c0.8,0,1.5,0.7,1.5,1.5
		S146.2,28.7,145.3,28.7z"/>
	<path display="inline" fill="#7A491B" d="M84.8,11.3c-0.4,0-0.8-0.2-1.1-0.5L73.5,0.6c-0.6-0.6-0.6-1.5,0-2.1
		c0.6-0.6,1.5-0.6,2.1,0L85.8,8.7c0.6,0.6,0.6,1.5,0,2.1C85.5,11.1,85.2,11.3,84.8,11.3z"/>
	<path display="inline" fill="#7A491B" d="M75.1,55.7c-0.4,0-0.8-0.2-1.1-0.5c-0.6-0.6-0.6-1.5,0-2.1l9.7-9.7c0.6-0.6,1.5-0.6,2.1,0
		c0.6,0.6,0.6,1.5,0,2.1l-9.7,9.7C75.8,55.5,75.5,55.7,75.1,55.7z"/>
	<path display="inline" fill="#7A491B" d="M119.5,11.3c-0.4,0-0.8-0.2-1.1-0.5c-0.6-0.6-0.6-1.5,0-2.1l9.7-9.7
		c0.6-0.6,1.5-0.6,2.1,0c0.6,0.6,0.6,1.5,0,2.1l-9.7,9.7C120.2,11.1,119.9,11.3,119.5,11.3z"/>
	<path display="inline" fill="#FFE53C" d="M101.9,51.6c13.5,0,24.4-10.9,24.4-24.4S115.3,2.8,101.9,2.8S77.4,13.7,77.4,27.2
		S88.4,51.6,101.9,51.6z"/>
	<path display="inline" fill="#7A1B2E" d="M101.9,53.1c-14.3,0-25.9-11.7-25.9-25.9S87.6,1.3,101.9,1.3s25.9,11.7,25.9,25.9
		S116.1,53.1,101.9,53.1z M101.9,4.3C89.3,4.3,79,14.6,79,27.2c0,12.6,10.3,22.9,22.9,22.9c12.6,0,22.9-10.3,22.9-22.9
		C124.7,14.6,114.4,4.3,101.9,4.3z"/>
	<path display="inline" fill="#FFE53C" d="M87.7,17.1c0.2-0.3,0.5-0.5,0.6-0.8L87.7,17.1z"/>
	<path display="inline" fill="#F2962E" d="M87.7,18.7c-0.3,0-0.6-0.1-0.9-0.3c-0.7-0.5-0.8-1.4-0.3-2.1c0.1-0.1,0.2-0.2,0.2-0.3
		c0.1-0.1,0.2-0.2,0.2-0.3c0.4-0.8,1.3-1.1,2.1-0.7c0.8,0.4,1.1,1.3,0.7,2.1c-0.2,0.4-0.4,0.6-0.6,0.8C89,17.9,89,18,89,18.1
		C88.7,18.4,88.2,18.7,87.7,18.7z"/>
	<path display="inline" fill="#FFE53C" d="M90.3,40.1c-3.6-3.2-5.8-7.8-5.8-12.9c0-1.5,0.2-3.1,0.6-4.5"/>
	<path display="inline" fill="#F2962E" d="M90.3,41.6c-0.4,0-0.8-0.2-1-0.4c-4-3.7-6.3-8.6-6.3-14c0-1.6,0.2-3.2,0.7-4.9
		c0.2-0.8,1.1-1.3,1.8-1.1c0.8,0.2,1.3,1.1,1.1,1.8c-0.4,1.4-0.5,2.8-0.5,4.1c0,4.5,1.9,8.7,5.3,11.7c0.6,0.5,0.7,1.5,0.2,2.1
		C91.1,41.5,90.6,41.6,90.3,41.6z"/>
</g>
<g id="Layer_3" display="none">
	<path display="inline" fill="#FFE53C" stroke="#7A491B" stroke-width="2.1539" d="M128.7,11.8c0,16.1-13,29.1-29.1,29.1
		c-0.4,0-0.8,0-1.2,0c-5.3-0.2-10.2-1.8-14.4-4.5c8.2-5.1,13.7-14.3,13.7-24.7c0-10.3-5.4-19.3-13.4-24.5c4.1-2.6,9-4.2,14.1-4.4
		c0.4,0,0.8,0,1.2,0C115.7-17.3,128.7-4.3,128.7,11.8z"/>
	<path display="inline" fill="#F2962E" d="M100.1-16.2c-0.8,0-1.7,0-2.5,0.1c14.2,1.3,25.3,13.2,25.3,27.7S111.8,38,97.6,39.3
		c0.8,0.1,1.7,0.1,2.5,0.1c15.4,0,27.8-12.5,27.8-27.8S115.5-16.2,100.1-16.2z"/>
</g>
<g id="Layer_1" display="none">
	<g display="inline">
		<path fill="#7A491B" d="M114,16.2c0,0.8-0.7,1.5-1.5,1.5H95.7c-0.8,0-1.5-0.7-1.5-1.5c0-0.8,0.7-1.5,1.5-1.5h16.8"/>
		<path fill="#7A491B" d="M96.3,44.7c-0.4,0-0.8-0.2-1.1-0.5l-9.7-9.7c-0.6-0.6-0.6-1.5,0-2.1c0.6-0.6,1.5-0.6,2.1,0l9.7,9.7
			c0.6,0.6,0.6,1.5,0,2.1C97.1,44.5,96.7,44.7,96.3,44.7z"/>
		<path fill="#6FB6C6" d="M76.9,53.6H54.4C47.5,53.6,42,48,42,41.2c0-6.9,5.6-12.4,12.4-12.4H57h0.4v-0.4c0-8.2,6.6-14.8,14.8-14.8
			c2.4,0,4.8,0.6,6.8,1.6l0.3,0.2l0.2-0.3c3.8-4.5,9.4-7.3,15.8-7.3c11.4,0,20.6,9.2,20.6,20.6v0.4h0.4h2.6
			c6.9,0,12.4,5.6,12.4,12.4c0,6.9-5.6,12.4-12.4,12.4H96.6"/>
		<path fill="none" stroke="#000000" stroke-width="0.8857" d="M76.9,53.6H54.4C47.5,53.6,42,48,42,41.2c0-6.9,5.6-12.4,12.4-12.4
			H57h0.4v-0.4c0-8.2,6.6-14.8,14.8-14.8c2.4,0,4.8,0.6,6.8,1.6l0.3,0.2l0.2-0.3c3.8-4.5,9.4-7.3,15.8-7.3
			c11.4,0,20.6,9.2,20.6,20.6v0.4h0.4h2.6c6.9,0,12.4,5.6,12.4,12.4c0,6.9-5.6,12.4-12.4,12.4H96.6"/>
		<path fill="#FFFFFF" d="M127.7,41.2h-2.8c0-3.3-2.7-5.9-5.9-5.9v-2.8C123.8,32.5,127.7,36.4,127.7,41.2z"/>
		<path fill="#FFFFFF" d="M112.3,28.4h-2.8c0-7.8-6.4-14.2-14.2-14.2v-2.8C104.7,11.4,112.3,19,112.3,28.4z"/>
		<path fill="#751C32" d="M96.9,56.2c7.4,0,14.8,0,22.1,0c7.8,0,14.2-6.4,14.2-14.2s-6.4-14.2-14.2-14.2h-1.2
			c-0.4-11.9-10.3-21.2-22.4-21.1C89.1,6.8,83.2,9.3,79,13.9c-2.1-0.9-4.3-1.4-6.6-1.4c-8.7,0-15.9,6.7-16.6,15.3h-1.2
			c-7.8,0-14.2,6.4-14.2,14.2s6.4,14.2,14.2,14.2h12.6v-2.8H54.6c-6.3,0-11.5-5.1-11.5-11.5c0-6.3,5.1-11.5,11.5-11.5h3.9V29
			c0-7.7,6.2-13.9,13.9-13.9c2.2,0,4.4,0.5,6.4,1.5l1,0.5l0.7-0.8c3.8-4.4,9.2-7,15-7c10.9,0,19.7,8.8,19.7,19.7v1.4h3.9
			c6.3,0,11.5,5.1,11.5,11.5c0,6.3-5.1,11.5-11.5,11.5H98.4h-0.7h-14c-2.5,0-4.9-0.1-7.4-0.1c-3,0-6.1,0.1-9.1,0.1v2.8h8h2.9
			c2.4,0,4.8,0,7.2,0"/>
		<path d="M96.9,53.2H73.5v0.2h23.4V53.2z"/>
	</g>
</g>
<g id="Layer_4">
	<path fill="#751C32" d="M120.5,40.5l-4.7-2.9c0.9-0.9,1.8-1.7,2.9-2.3c1.5-0.9,2-2.8,1.2-4.4c-0.8-1.5-2.6-2.1-4.1-1.2
		c-2,1.2-3.9,2.8-5.3,4.7l-12.2-7.4l12.2-7.4c1.5,1.9,3.3,3.5,5.3,4.7c1.5,0.9,3.3,0.3,4.2-1.2c0.8-1.5,0.3-3.5-1.2-4.4c0,0,0,0,0,0
		c-1.1-0.6-2-1.4-2.9-2.3l4.7-2.9c1.5-0.8,2-2.8,1.3-4.3c-0.8-1.6-2.6-2.2-4.1-1.3c-0.1,0-0.1,0.1-0.2,0.1l-4.7,2.9
		c-0.3-1.2-0.5-2.5-0.5-3.8c0-1.8-1.3-3.2-3-3.3c0,0,0,0,0,0h-0.1c-1.7,0-3,1.4-3,3.2c0,2.5,0.4,4.9,1.2,7.2l-12.2,7.4V6.5
		c2.3-0.4,4.5-1.3,6.5-2.5c1.4-0.9,1.9-2.9,1-4.4c-0.9-1.5-2.7-2-4.2-1.1c-1,0.7-2.2,1.2-3.4,1.5v-4.9c0-1.8-1.4-3.2-3-3.2
		c-1.7,0-3,1.4-3,3.2v4.9c-1.2-0.3-2.3-0.8-3.4-1.5c-1.4-0.9-3.3-0.4-4.2,1.1S81,3,82.5,3.9c2,1.3,4.2,2.1,6.5,2.5v14.9l-12.2-7.4
		c0.8-2.3,1.2-4.8,1.2-7.2c0-1.8-1.4-3.2-3-3.2h-0.1c-1.7,0-3,1.5-3,3.3c0,0,0,0,0,0c0,1.3-0.1,2.6-0.5,3.8l-4.7-2.9
		c-1.4-0.9-3.3-0.4-4.2,1.1s-0.4,3.5,1.1,4.4c0,0,0,0,0.1,0l4.7,2.9c-0.9,0.9-1.8,1.7-2.9,2.3c-1.5,0.8-2,2.8-1.2,4.4
		c0.8,1.6,2.7,2.1,4.1,1.3c0,0,0,0,0,0c2-1.2,3.9-2.8,5.3-4.7L86,26.9l-12.2,7.4c-1.5-1.9-3.3-3.5-5.3-4.7c-1.5-0.9-3.3-0.3-4.2,1.2
		c-0.8,1.5-0.3,3.5,1.2,4.4c0,0,0,0,0,0c1.1,0.6,2,1.4,2.9,2.3l-4.7,2.9c-1.5,0.9-2,2.8-1.2,4.4c0.8,1.5,2.7,2.1,4.1,1.2
		c0,0,0.1,0,0.1,0l4.7-2.9c0.3,1.2,0.5,2.5,0.5,3.8c0,1.8,1.3,3.2,3,3.3h0.1c1.7,0,3-1.4,3-3.2c0-2.5-0.4-4.9-1.2-7.2L89,32.5v14.9
		c-2.3,0.4-4.5,1.3-6.5,2.5c-1.4,0.9-1.9,2.9-1,4.4c0.9,1.5,2.7,2,4.2,1.1c1-0.7,2.2-1.2,3.4-1.5v4.9c0,1.8,1.4,3.2,3,3.2
		c1.7,0,3-1.4,3-3.2v-4.9c1.2,0.3,2.3,0.8,3.4,1.5c1.4,0.9,3.3,0.4,4.2-1.1s0.4-3.5-1-4.4c-2-1.3-4.2-2.1-6.5-2.5V32.5l12.2,7.4
		c-0.8,2.3-1.2,4.8-1.2,7.2c0,1.8,1.4,3.2,3,3.2h0.1c1.7,0,3-1.5,3-3.3c0,0,0,0,0,0c0-1.3,0.1-2.6,0.5-3.8l4.7,2.9
		c1.4,1,3.3,0.5,4.2-1c0.9-1.5,0.5-3.5-0.9-4.4C120.6,40.6,120.5,40.5,120.5,40.5z"/>
</g>
</svg>
