<?xml version="1.0" encoding="utf-8"?>
<!-- Generator: Adobe Illustrator 18.1.1, SVG Export Plug-In . SVG Version: 6.00 Build 0)  -->
<svg version="1.1" xmlns="http://www.w3.org/2000/svg" xmlns:xlink="http://www.w3.org/1999/xlink" x="0px" y="0px"
	 viewBox="24 2 98 98" enable-background="new 24 2 98 98" xml:space="preserve">
<g id="Layer_1">
	<path fill="#FFE53C" d="M74.2,74.6c13.5,0,24.4-10.9,24.4-24.4S87.6,25.8,74.2,25.8S49.8,36.7,49.8,50.2S60.7,74.6,74.2,74.6z"/>
	<g id="Layer_3">
		<path fill="#F2962E" d="M76.5,72.9c0.6-0.1,2-0.2,2.6-0.3C89.4,70.5,97,61,97,50.2c0-12.3-9.2-22.9-21.7-22.9
			c-0.6,0-2.1-0.1-2.8,0c11.4,1,20.4,11.1,20.4,22.8c0,8.4-4.6,15.8-11.5,19.6c-0.9,0.5-0.9,0.6-1.8,0.9l-0.9,0.5
			c-0.4,0.2-0.9,0.3-1.3,0.5l-2.5,1c0.5,0-1.3,0.4-0.8,0.3"/>
	</g>
	<path fill="#7A1B2E" d="M74.2,76.1c-14.3,0-25.9-11.7-25.9-25.9s11.7-25.9,25.9-25.9s25.9,11.7,25.9,25.9S88.4,76.1,74.2,76.1z
		 M74.2,27.3c-12.6,0-22.9,10.3-22.9,22.9C51.3,62.8,61.6,73,74.2,73C86.8,73,97,62.8,97,50.2C97,37.6,86.8,27.3,74.2,27.3z"/>
	<path fill="#FFE53C" d="M60.1,40.1c0.2-0.3,0.5-0.5,0.6-0.8L60.1,40.1z"/>
	<path fill="#FFE53C" d="M62.6,63.1c-3.6-3.2-5.8-7.8-5.8-12.9c0-1.5,0.2-3.1,0.6-4.5"/>
</g>
<g id="Layer_2">
</g>
</svg>
