<?xml version="1.0" encoding="utf-8"?>
<!-- Generator: Adobe Illustrator 18.1.1, SVG Export Plug-In . SVG Version: 6.00 Build 0)  -->
<svg version="1.1" xmlns="http://www.w3.org/2000/svg" xmlns:xlink="http://www.w3.org/1999/xlink" x="0px" y="0px"
	 viewBox="24 2 98 98" enable-background="new 24 2 98 98" xml:space="preserve">
<g id="Layer_1">
	<path fill="#FFE53C" d="M77.2,25.8c-1.2,0-2.4,0.1-3.5,0.3c-2,0.3-3.9,0.8-5.7,1.6c1,0.1,1.9,0.4,2.8,0.6
		c9.5,2.8,16.4,11.6,16.4,21.9c0,10.3-7,19.1-16.4,21.9c-0.9,0.3-1.8,0.5-2.8,0.6c1.8,0.8,3.7,1.3,5.7,1.6c1.1,0.2,2.3,0.3,3.5,0.3
		c13.5,0,24.4-10.9,24.4-24.4C101.6,36.7,90.7,25.8,77.2,25.8z"/>
	<g id="Layer_3">
		<path fill="#F2962E" d="M79.5,72.9c0.6-0.1,2-0.2,2.6-0.3C92.4,70.5,100,61,100,50.2c0-12.3-9.2-22.9-21.7-22.9
			c-0.6,0-2.1-0.1-2.8,0c11.4,1,20.4,11.1,20.4,22.8c0,8.4-4.6,15.8-11.5,19.6c-0.9,0.5-1.8,0.9-2.8,1.3l0,0
			c-0.4,0.2-0.8,0.3-1.3,0.5l-2.5,1.2c0.5,0-1.3,0.4-0.8,0.3L79.5,72.9z"/>
	</g>
	<path fill="#7A1B2E" d="M77.2,24.2c-2.2,0-4.4,0.3-6.5,0.8c0,0,0,0,0,0c-2,0.5-3.9,1.3-5.7,2.3c1,0,2,0.1,3,0.3
		c1,0.1,1.9,0.4,2.8,0.6c1.6-0.5,3.2-0.8,4.9-0.9h0c0.3,0,0.5,0,0.8,0c0.1,0,0.3,0,0.4,0c0,0,0,0,0,0h0.3c0.1,0,0.2,0,0.2,0
		c10.3,0.1,19.1,7.1,21.8,16.7c0,0,0,0,0,0.1c0,0,0,0.1,0,0.1c0,0.1,0.1,0.3,0.1,0.4c0.5,1.8,0.7,3.7,0.7,5.6c0,4-1.1,7.9-2.9,11.2
		c-0.1,0.3-0.3,0.5-0.4,0.7c0,0,0,0,0,0c0,0.1-0.1,0.1-0.1,0.2c-3.6,5.8-9.8,9.8-16.8,10.6c-0.1,0-0.2,0-0.3,0
		C78.7,73,78,73,77.2,73c0,0-0.1,0-0.2,0h0c-0.2,0-0.4,0-0.5,0c-2-0.1-3.9-0.4-5.7-0.9c-0.9,0.3-1.8,0.5-2.8,0.6c-1,0.2-2,0.3-3,0.3
		c1.8,1,3.7,1.7,5.7,2.3c0,0,0,0,0,0c2.1,0.5,4.2,0.8,6.5,0.8c14.3,0,25.9-11.7,25.9-25.9C103.1,35.9,91.4,24.2,77.2,24.2z"/>
</g>
<g id="Layer_2">
	<path fill="#7A1B2E" d="M76.8,27.5C76.8,27.5,76.8,27.5,76.8,27.5L76.8,27.5c-0.1-0.1-0.2-0.1-0.3-0.2c0,0,0,0,0,0h0
		c-0.9-0.5-1.8-0.9-2.7-1.3c-1-0.4-1.9-0.7-2.9-1c0,0,0,0,0,0c-2,0.5-3.9,1.3-5.7,2.3c1,0,2,0.1,3,0.3c1,0.1,1.9,0.4,2.8,0.6
		c9.5,2.8,16.4,11.6,16.4,21.9c0,10.3-7,19.1-16.4,21.9c-0.9,0.3-1.8,0.5-2.8,0.6c-1,0.2-2,0.3-3,0.3c1.8,1,3.7,1.7,5.7,2.3
		c0,0,0,0,0,0c1-0.3,2-0.6,2.9-1c1-0.4,1.9-0.8,2.8-1.3c8.2-4.4,13.7-13,13.7-22.9C90.2,40.4,84.7,31.9,76.8,27.5z"/>
</g>
</svg>
