<?xml version="1.0" encoding="utf-8"?>
<!-- Generator: Adobe Illustrator 18.1.1, SVG Export Plug-In . SVG Version: 6.00 Build 0)  -->
<svg version="1.1" id="Layer_1" xmlns="http://www.w3.org/2000/svg" xmlns:xlink="http://www.w3.org/1999/xlink" x="0px" y="0px"
	 viewBox="30 17 110 67" enable-background="new 30 17 110 67" xml:space="preserve">
<path fill="#491C32" d="M82.5,69.3H60c-6.9,0-12.4-5.6-12.4-12.4c0-6.9,5.6-12.4,12.4-12.4h2.6H63v-0.4c0-8.2,6.1-3.3,14.3-3.3
	c2.4,0,5.3-10.9,7.3-9.9l0.3,0.2l0.2-0.3c3.8-4.5,9.4-7.3,15.8-7.3c11.4,0,20.6,9.2,20.6,20.6v0.4h0.4h2.6c6.9,0,12.4,5.6,12.4,12.4
	c0,6.9-5.6,12.4-12.4,12.4h-22.3"/>
<path fill="#7A491B" d="M105.5,38.8c0,0.8-0.7,1.5-1.5,1.5H87.2c-0.8,0-1.5-0.7-1.5-1.5c0-0.8,0.7-1.5,1.5-1.5H104"/>
<path fill="#7A491B" d="M87.8,67.3c-0.4,0-0.8-0.2-1.1-0.5L77,57.1c-0.6-0.6-0.6-1.5,0-2.1c0.6-0.6,1.5-0.6,2.1,0l9.7,9.7
	c0.6,0.6,0.6,1.5,0,2.1C88.6,67.1,88.2,67.3,87.8,67.3z"/>
<path fill="#7A491B" d="M42.7,60.4c-0.4,0-0.8-0.2-1.1-0.5c-0.6-0.6-0.6-1.5,0-2.1l9.7-9.7c0.6-0.6,1.5-0.6,2.1,0
	c0.6,0.6,0.6,1.5,0,2.1l-9.7,9.7C43.5,60.2,43.1,60.4,42.7,60.4z"/>
<path fill="#6FB6C6" d="M68.4,76.2H45.9c-6.9,0-12.4-5.6-12.4-12.4c0-6.9,5.6-12.4,12.4-12.4h2.6h0.4V51c0-8.2,6.6-14.8,14.8-14.8
	c2.4,0,4.8,0.6,6.8,1.6l0.3,0.2l0.2-0.3c3.8-4.5,9.4-7.3,15.8-7.3c11.4,0,20.6,9.2,20.6,20.6v0.4h0.4h2.6c6.9,0,12.4,5.6,12.4,12.4
	c0,6.9-5.6,12.4-12.4,12.4H88.1"/>
<path fill="none" stroke="#000000" stroke-width="0.8857" d="M68.4,76.2H45.9c-6.9,0-12.4-5.6-12.4-12.4c0-6.9,5.6-12.4,12.4-12.4
	h2.6h0.4V51c0-8.2,6.6-14.8,14.8-14.8c2.4,0,4.8,0.6,6.8,1.6l0.3,0.2l0.2-0.3c3.8-4.5,9.4-7.3,15.8-7.3c11.4,0,20.6,9.2,20.6,20.6
	v0.4h0.4h2.6c6.9,0,12.4,5.6,12.4,12.4c0,6.9-5.6,12.4-12.4,12.4H88.1"/>
<path fill="#FFFFFF" d="M119.2,63.8h-2.8c0-3.3-2.7-5.9-5.9-5.9v-2.8C115.3,55.1,119.2,59,119.2,63.8z"/>
<path fill="#FFFFFF" d="M103.8,51H101c0-7.8-6.4-14.2-14.2-14.2V34C96.2,34,103.8,41.6,103.8,51z"/>
<path fill="#751C32" d="M88.4,78.8c7.4,0,14.8,0,22.1,0c7.8,0,14.2-6.4,14.2-14.2s-6.4-14.2-14.2-14.2h-1.2
	C108.9,38.5,99,29.2,86.9,29.3c-6.3,0.1-12.2,2.6-16.4,7.2c-2.1-0.9-4.3-1.4-6.6-1.4c-8.7,0-15.9,6.7-16.6,15.3h-1.2
	c-7.8,0-14.2,6.4-14.2,14.2s6.4,14.2,14.2,14.2h12.6V76H46.1c-6.3,0-11.5-5.1-11.5-11.5c0-6.3,5.1-11.5,11.5-11.5H50v-1.4
	c0-7.7,6.2-13.9,13.9-13.9c2.2,0,4.4,0.5,6.4,1.5l1,0.5l0.7-0.8c3.8-4.4,9.2-7,15-7c10.9,0,19.7,8.8,19.7,19.7V53h3.9
	c6.3,0,11.5,5.1,11.5,11.5c0,6.3-5.1,11.5-11.5,11.5H89.9h-0.7h-14c-2.5,0-4.9-0.1-7.4-0.1c-3,0-6.1,0.1-9.1,0.1v2.8h8h2.9
	c2.4,0,4.8,0,7.2,0"/>
<path d="M88.4,75.8H65V76h23.4V75.8z"/>
</svg>
