<?xml version="1.0" encoding="utf-8"?>
<!-- Generator: Adobe Illustrator 18.1.1, SVG Export Plug-In . SVG Version: 6.00 Build 0)  -->
<svg version="1.1" xmlns="http://www.w3.org/2000/svg" xmlns:xlink="http://www.w3.org/1999/xlink" x="0px" y="0px"
	 viewBox="30 -26.4 120.3 110.4" enable-background="new 30 -26.4 120.3 110.4" xml:space="preserve">
<g id="Layer_2">
	<path fill="#7A491B" d="M101.9,2c-0.8,0-1.5-0.7-1.5-1.5v-16.8c0-0.8,0.7-1.5,1.5-1.5c0.8,0,1.5,0.7,1.5,1.5V0.5
		C103.4,1.4,102.7,2,101.9,2z"/>
	<path fill="#7A491B" d="M75.2,28.7H58.4c-0.8,0-1.5-0.7-1.5-1.5s0.7-1.5,1.5-1.5h16.8c0.8,0,1.5,0.7,1.5,1.5S76,28.7,75.2,28.7z"/>
	<path fill="#7A491B" d="M145.3,28.7h-16.8c-0.8,0-1.5-0.7-1.5-1.5s0.7-1.5,1.5-1.5h16.8c0.8,0,1.5,0.7,1.5,1.5
		S146.2,28.7,145.3,28.7z"/>
	<path fill="#7A491B" d="M84.8,11.3c-0.4,0-0.8-0.2-1.1-0.5L73.5,0.6c-0.6-0.6-0.6-1.5,0-2.1c0.6-0.6,1.5-0.6,2.1,0L85.8,8.7
		c0.6,0.6,0.6,1.5,0,2.1C85.5,11.1,85.2,11.3,84.8,11.3z"/>
	<path fill="#7A491B" d="M75.1,55.7c-0.4,0-0.8-0.2-1.1-0.5c-0.6-0.6-0.6-1.5,0-2.1l9.7-9.7c0.6-0.6,1.5-0.6,2.1,0
		c0.6,0.6,0.6,1.5,0,2.1l-9.7,9.7C75.8,55.5,75.5,55.7,75.1,55.7z"/>
	<path fill="#7A491B" d="M119.5,11.3c-0.4,0-0.8-0.2-1.1-0.5c-0.6-0.6-0.6-1.5,0-2.1l9.7-9.7c0.6-0.6,1.5-0.6,2.1,0
		c0.6,0.6,0.6,1.5,0,2.1l-9.7,9.7C120.2,11.1,119.9,11.3,119.5,11.3z"/>
	<path fill="#FFE53C" d="M101.9,51.6c13.5,0,24.4-10.9,24.4-24.4S115.3,2.8,101.9,2.8S77.4,13.7,77.4,27.2S88.4,51.6,101.9,51.6z"/>
	<path fill="#7A1B2E" d="M101.9,53.1c-14.3,0-25.9-11.7-25.9-25.9S87.6,1.3,101.9,1.3s25.9,11.7,25.9,25.9S116.1,53.1,101.9,53.1z
		 M101.9,4.3C89.3,4.3,79,14.6,79,27.2c0,12.6,10.3,22.9,22.9,22.9c12.6,0,22.9-10.3,22.9-22.9C124.7,14.6,114.4,4.3,101.9,4.3z"/>
	<path fill="#FFE53C" d="M87.7,17.1c0.2-0.3,0.5-0.5,0.6-0.8L87.7,17.1z"/>
	<path fill="#F2962E" d="M87.7,18.7c-0.3,0-0.6-0.1-0.9-0.3c-0.7-0.5-0.8-1.4-0.3-2.1c0.1-0.1,0.2-0.2,0.2-0.3
		c0.1-0.1,0.2-0.2,0.2-0.3c0.4-0.8,1.3-1.1,2.1-0.7c0.8,0.4,1.1,1.3,0.7,2.1c-0.2,0.4-0.4,0.6-0.6,0.8C89,17.9,89,18,89,18.1
		C88.7,18.4,88.2,18.7,87.7,18.7z"/>
	<path fill="#FFE53C" d="M90.3,40.1c-3.6-3.2-5.8-7.8-5.8-12.9c0-1.5,0.2-3.1,0.6-4.5"/>
	<path fill="#F2962E" d="M90.3,41.6c-0.4,0-0.8-0.2-1-0.4c-4-3.7-6.3-8.6-6.3-14c0-1.6,0.2-3.2,0.7-4.9c0.2-0.8,1.1-1.3,1.8-1.1
		c0.8,0.2,1.3,1.1,1.1,1.8c-0.4,1.4-0.5,2.8-0.5,4.1c0,4.5,1.9,8.7,5.3,11.7c0.6,0.5,0.7,1.5,0.2,2.1C91.1,41.5,90.6,41.6,90.3,41.6
		z"/>
</g>
<g id="Layer_1">
	<path fill="#751C32" d="M72.5,74.7c-0.4,0-0.8-0.2-1.1-0.5c-0.6-0.6-0.6-1.6,0-2.2l9.7-10.1c0.6-0.6,1.5-0.6,2.1,0s0.6,1.6,0,2.2
		l-9.7,10.1C73.3,74.5,72.9,74.7,72.5,74.7z"/>
	<path fill="#751C32" d="M52.3,74.7c-0.4,0-0.8-0.2-1.1-0.5c-0.6-0.6-0.6-1.6,0-2.2l9.7-10.1c0.6-0.6,1.5-0.6,2.1,0
		c0.6,0.6,0.6,1.6,0,2.2l-9.7,10.1C53.1,74.5,52.7,74.7,52.3,74.7z"/>
	<path fill="#751C32" d="M90.7,74.7c-0.4,0-0.8-0.2-1.1-0.5c-0.6-0.6-0.6-1.6,0-2.2l9.7-10.1c0.6-0.6,1.5-0.6,2.1,0s0.6,1.6,0,2.2
		l-9.7,10.1C91.5,74.5,91.1,74.7,90.7,74.7z"/>
	<g>
		<path fill="#7A491B" d="M107.3,19c0,0.8-0.7,1.5-1.5,1.5H89c-0.8,0-1.5-0.7-1.5-1.5c0-0.8,0.7-1.5,1.5-1.5h16.8"/>
		<path fill="#7A491B" d="M89.6,47.5c-0.4,0-0.8-0.2-1.1-0.5l-9.7-9.7c-0.6-0.6-0.6-1.5,0-2.1c0.6-0.6,1.5-0.6,2.1,0l9.7,9.7
			c0.6,0.6,0.6,1.5,0,2.1C90.4,47.3,90,47.5,89.6,47.5z"/>
		<path fill="#6FB6C6" d="M70.2,56.4H47.7c-6.9,0-12.4-5.6-12.4-12.4c0-6.9,5.6-12.4,12.4-12.4h2.6h0.4v-0.4
			c0-8.2,6.6-14.8,14.8-14.8c2.4,0,4.8,0.6,6.8,1.6l0.3,0.2l0.2-0.3c3.8-4.5,9.4-7.3,15.8-7.3c11.4,0,20.6,9.2,20.6,20.6v0.4h0.4
			h2.6c6.9,0,12.4,5.6,12.4,12.4c0,6.9-5.6,12.4-12.4,12.4H89.9"/>
		<path fill="none" stroke="#000000" stroke-width="0.8857" d="M70.2,56.4H47.7c-6.9,0-12.4-5.6-12.4-12.4c0-6.9,5.6-12.4,12.4-12.4
			h2.6h0.4v-0.4c0-8.2,6.6-14.8,14.8-14.8c2.4,0,4.8,0.6,6.8,1.6l0.3,0.2l0.2-0.3c3.8-4.5,9.4-7.3,15.8-7.3
			c11.4,0,20.6,9.2,20.6,20.6v0.4h0.4h2.6c6.9,0,12.4,5.6,12.4,12.4c0,6.9-5.6,12.4-12.4,12.4H89.9"/>
		<path fill="#FFFFFF" d="M121,44h-2.8c0-3.3-2.7-5.9-5.9-5.9v-2.8C117.1,35.3,121,39.2,121,44z"/>
		<path fill="#FFFFFF" d="M105.6,31.2h-2.8c0-7.8-6.4-14.2-14.2-14.2v-2.8C98,14.2,105.6,21.8,105.6,31.2z"/>
		<path fill="#751C32" d="M90.2,59c7.4,0,14.8,0,22.1,0c7.8,0,14.2-6.4,14.2-14.2s-6.4-14.2-14.2-14.2h-1.2
			c-0.4-11.9-10.3-21.2-22.4-21.1c-6.3,0.1-12.2,2.6-16.4,7.2c-2.1-0.9-4.3-1.4-6.6-1.4c-8.7,0-15.9,6.7-16.6,15.3h-1.2
			c-7.8,0-14.2,6.4-14.2,14.2S40.1,59,47.9,59h12.6v-2.8H47.9c-6.3,0-11.5-5.1-11.5-11.5c0-6.3,5.1-11.5,11.5-11.5h3.9v-1.4
			c0-7.7,6.2-13.9,13.9-13.9c2.2,0,4.4,0.5,6.4,1.5l1,0.5l0.7-0.8c3.8-4.4,9.2-7,15-7c10.9,0,19.7,8.8,19.7,19.7v1.4h3.9
			c6.3,0,11.5,5.1,11.5,11.5c0,6.3-5.1,11.5-11.5,11.5H91.7H91H77c-2.5,0-4.9-0.1-7.4-0.1c-3,0-6.1,0.1-9.1,0.1V59h8h2.9
			c2.4,0,4.8,0,7.2,0"/>
		<path d="M90.2,56H66.8v0.2h23.4V56z"/>
	</g>
</g>
</svg>
