<?xml version="1.0" encoding="utf-8"?>
<!-- Generator: Adobe Illustrator 18.1.1, SVG Export Plug-In . SVG Version: 6.00 Build 0)  -->
<svg version="1.1" xmlns="http://www.w3.org/2000/svg" xmlns:xlink="http://www.w3.org/1999/xlink" x="0px" y="0px"
	 viewBox="22 -31 127 122" enable-background="new 22 -31 127 122" xml:space="preserve">
<g id="Layer_2">
	<path fill="#491C32" d="M103.6,9.8c-0.4-0.4-0.9-0.8-1.4-1.2c-0.2-0.2-0.4-0.3-0.7-0.5c0,0,0,0-0.1-0.1c-0.2-0.1-0.4-0.3-0.7-0.4
		c-0.2-0.1-0.4-0.3-0.6-0.4c-0.2-0.1-0.4-0.3-0.7-0.4c-0.1-0.1-0.3-0.1-0.4-0.2c-0.2-0.1-0.4-0.2-0.6-0.3C98.2,6.2,98,6.1,97.8,6
		c-0.3-0.1-0.5-0.2-0.8-0.3c-0.2-0.1-0.4-0.1-0.6-0.2c-0.2-0.1-0.4-0.1-0.6-0.2c-0.3-0.1-0.5-0.2-0.8-0.2c-0.2,0-0.4-0.1-0.6-0.1
		c0,0-0.1,0-0.1,0c-0.1,0-0.3-0.1-0.4-0.1c-0.5-0.1-1.1-0.2-1.6-0.2h0c-0.2,0-0.5,0-0.7-0.1c-0.1,0-0.2,0-0.3,0c-0.3,0-0.6,0-0.9,0
		c-1.4,0-2.8,0.2-4.2,0.5c0.7-1.1,1.3-1.7,1.8-1.5l0.3,0.2l0.2-0.3c0.1-0.1,0.2-0.2,0.3-0.3c0.3-0.4,0.7-0.8,1.1-1.1
		c3.6-3.6,8.6-5.7,14.2-5.7c11.2,0,20.3,9,20.3,20.3v0.4h3c6.8,0,12.2,5.5,12.2,12.2c0,6.8-5.5,12.2-12.2,12.2h-3.4
		c0.3-0.7,0.6-1.4,0.7-2.2v0c0,0,0,0,0-0.1c0-0.2,0.1-0.4,0.1-0.6c0-0.2,0.1-0.4,0.1-0.6c0-0.2,0-0.3,0-0.5c0-0.3,0-0.5,0-0.8
		c0-6.3-5.1-11.3-11.3-11.3h-3.8v-1.4c0-0.2,0-0.4,0-0.7v0c0-0.7-0.1-1.4-0.2-2.1c0-0.2-0.1-0.5-0.1-0.7c0-0.1,0-0.2-0.1-0.3
		c0-0.2-0.1-0.4-0.1-0.7c0-0.2-0.1-0.3-0.1-0.5c0-0.2-0.1-0.3-0.1-0.5c0-0.2-0.1-0.3-0.1-0.5c-0.1-0.2-0.1-0.4-0.2-0.7
		c-0.1-0.2-0.2-0.5-0.3-0.7c-0.1-0.2-0.1-0.4-0.2-0.5"/>
	<path fill="#491C32" d="M175.9,16.7c-0.1-0.2-0.2-0.3-0.3-0.5"/>
</g>
<g id="Layer_1">
	<path fill="#DFDBB2" stroke="#000000" stroke-width="0.8857" d="M113.3,50.8H91l1.6-3.2L93,47h-0.7h-9V26l-0.8-0.2l-11.2,25H48.7
		c-6.9,0-12.4-5.6-12.4-12.4S41.9,26,48.7,26h2.6h0.4v-0.4c0-8.2,6.6-14.8,14.8-14.8c2.4,0,4.8,0.6,6.8,1.6l0.3,0.2l0.2-0.3
		c3.8-4.5,9.4-7.3,15.8-7.3c11.4,0,20.6,9.2,20.6,20.6V26h0.4h2.6c6.9,0,12.4,5.6,12.4,12.4S120.1,50.8,113.3,50.8z"/>
	<path fill="#FFFFFF" d="M122,38.4h-2.8c0-3.3-2.7-5.9-5.9-5.9v-2.8C118.1,29.7,122,33.6,122,38.4z"/>
	<path fill="#FFFFFF" d="M106.6,25.6h-2.8c0-7.8-6.4-14.2-14.2-14.2V8.6C99,8.6,106.6,16.2,106.6,25.6z"/>
	<path fill="#F2962E" d="M77.3,76.5l1.8-21.4h-9.4L82.8,26v21.4h9.4L77.3,76.5z"/>
	<path fill="#7A1B2E" d="M113.3,24.2h-1.2c-0.7-11.7-10.5-21.1-22.4-21.1c-6.3,0-12.2,2.6-16.4,7.2c-2.1-0.9-4.3-1.4-6.6-1.4
		c-8.7,0-15.9,6.7-16.6,15.3h-1.2c-7.8,0-14.2,6.4-14.2,14.2c0,7.8,6.4,14.2,14.2,14.2l12.6,0v-2.8H48.7c-6.3,0-11.5-5.1-11.5-11.5
		c0-6.3,5.1-11.5,11.5-11.5h3.9v-1.4c0-7.7,6.2-13.9,13.9-13.9c2.2,0,4.4,0.5,6.4,1.5l1,0.5l0.7-0.8c3.8-4.4,9.2-7,15-7
		c10.9,0,19.7,8.8,19.7,19.7v1.4h3.9c6.3,0,11.5,5.1,11.5,11.5c0,6.3-5.1,11.5-11.5,11.5H92.5l2-3.8H84.2V19.5L70.6,49.9h-9.2v2.8h8
		l-1.7,3.8h10.1l-2.3,26.9l15.8-30.8h22.1c7.8,0,14.2-6.4,14.2-14.2C127.5,30.6,121.1,24.2,113.3,24.2z M71.9,53.7l0.5-1.1l9.1-20.2
		v16.4H90L79.3,69.6l1.4-15.9H71.9z"/>
</g>
</svg>
