<?xml version="1.0" encoding="utf-8"?>
<!-- Generator: Adobe Illustrator 18.1.1, SVG Export Plug-In . SVG Version: 6.00 Build 0)  -->
<svg version="1.1" id="Layer_1" xmlns="http://www.w3.org/2000/svg" xmlns:xlink="http://www.w3.org/1999/xlink" x="0px" y="0px"
	 viewBox="24 2 98 98" enable-background="new 24 2 98 98" xml:space="preserve">
<path fill="#7A491B" d="M74.2,25c-0.8,0-1.5-0.7-1.5-1.5V6.7c0-0.8,0.7-1.5,1.5-1.5c0.8,0,1.5,0.7,1.5,1.5v16.8
	C75.7,24.3,75,25,74.2,25z"/>
<path fill="#7A491B" d="M74.2,95.2c-0.8,0-1.5-0.7-1.5-1.5V76.9c0-0.8,0.7-1.5,1.5-1.5c0.8,0,1.5,0.7,1.5,1.5v16.8
	C75.7,94.5,75,95.2,74.2,95.2z"/>
<path fill="#7A491B" d="M47.5,51.7H30.7c-0.8,0-1.5-0.7-1.5-1.5s0.7-1.5,1.5-1.5h16.8c0.8,0,1.5,0.7,1.5,1.5S48.3,51.7,47.5,51.7z"
	/>
<path fill="#7A491B" d="M117.6,51.7h-16.8c-0.8,0-1.5-0.7-1.5-1.5s0.7-1.5,1.5-1.5h16.8c0.8,0,1.5,0.7,1.5,1.5
	S118.5,51.7,117.6,51.7z"/>
<path fill="#7A491B" d="M57.1,34.2c-0.4,0-0.8-0.2-1.1-0.5L45.8,23.5c-0.6-0.6-0.6-1.5,0-2.1c0.6-0.6,1.5-0.6,2.1,0l10.2,10.2
	c0.6,0.6,0.6,1.5,0,2.1C57.8,34.1,57.5,34.2,57.1,34.2z"/>
<path fill="#7A491B" d="M101.5,78.6c-0.4,0-0.8-0.2-1.1-0.5l-9.7-9.7c-0.6-0.6-0.6-1.5,0-2.1s1.5-0.6,2.1,0l9.7,9.7
	c0.6,0.6,0.6,1.5,0,2.1C102.2,78.5,101.9,78.6,101.5,78.6z"/>
<path fill="#7A491B" d="M47.4,78.6c-0.4,0-0.8-0.2-1.1-0.5c-0.6-0.6-0.6-1.5,0-2.1l9.7-9.7c0.6-0.6,1.5-0.6,2.1,0
	c0.6,0.6,0.6,1.5,0,2.1l-9.7,9.7C48.2,78.5,47.8,78.6,47.4,78.6z"/>
<path fill="#7A491B" d="M91.8,34.2c-0.4,0-0.8-0.2-1.1-0.5c-0.6-0.6-0.6-1.5,0-2.1l9.7-9.7c0.6-0.6,1.5-0.6,2.1,0
	c0.6,0.6,0.6,1.5,0,2.1l-9.7,9.7C92.5,34.1,92.2,34.2,91.8,34.2z"/>
<path fill="#FFE53C" d="M74.2,74.6c13.5,0,24.4-10.9,24.4-24.4S87.6,25.8,74.2,25.8S49.8,36.7,49.8,50.2S60.7,74.6,74.2,74.6z"/>
<path fill="#7A1B2E" d="M74.2,76.1c-14.3,0-25.9-11.7-25.9-25.9s11.7-25.9,25.9-25.9s25.9,11.7,25.9,25.9S88.4,76.1,74.2,76.1z
	 M74.2,27.3c-12.6,0-22.9,10.3-22.9,22.9C51.3,62.8,61.6,73,74.2,73C86.8,73,97,62.8,97,50.2C97,37.6,86.8,27.3,74.2,27.3z"/>
<path fill="#FFE53C" d="M60.1,40.1c0.2-0.3,0.5-0.5,0.6-0.8L60.1,40.1z"/>
<path fill="#F2962E" d="M60.1,41.6c-0.3,0-0.6-0.1-0.9-0.3c-0.7-0.5-0.8-1.4-0.3-2.1c0.1-0.1,0.2-0.2,0.2-0.3
	c0.1-0.1,0.2-0.2,0.2-0.3c0.4-0.8,1.3-1.1,2.1-0.7c0.8,0.4,1.1,1.3,0.7,2.1c-0.2,0.4-0.4,0.6-0.6,0.8c-0.1,0.1-0.2,0.2-0.2,0.2
	C61,41.4,60.5,41.6,60.1,41.6z"/>
<path fill="#FFE53C" d="M62.6,63.1c-3.6-3.2-5.8-7.8-5.8-12.9c0-1.5,0.2-3.1,0.6-4.5"/>
<path fill="#F2962E" d="M62.6,64.6c-0.4,0-0.8-0.2-1-0.4c-4-3.7-6.3-8.6-6.3-14c0-1.6,0.2-3.2,0.7-4.9c0.2-0.8,1.1-1.3,1.8-1.1
	c0.8,0.2,1.3,1.1,1.1,1.8c-0.4,1.4-0.5,2.8-0.5,4.1c0,4.5,1.9,8.7,5.3,11.7c0.6,0.5,0.7,1.5,0.2,2.1C63.4,64.4,63,64.6,62.6,64.6z"
	/>
</svg>
