<?xml version="1.0" encoding="utf-8"?>
<!-- Generator: Adobe Illustrator 18.1.1, SVG Export Plug-In . SVG Version: 6.00 Build 0)  -->
<svg version="1.1" xmlns="http://www.w3.org/2000/svg" xmlns:xlink="http://www.w3.org/1999/xlink" x="0px" y="0px"
	 viewBox="0 0 120 100" enable-background="new 0 0 120 100" xml:space="preserve">
<g id="Layer_2">
	<path fill="#7A491B" d="M48.2,46.8c-0.4,0-0.7-0.3-0.7-0.7v-7.9c0-0.4,0.3-0.7,0.7-0.7c0.4,0,0.7,0.3,0.7,0.7v7.9
		C48.9,46.5,48.6,46.8,48.2,46.8z"/>
	<path fill="#7A491B" d="M35.6,59.5h-7.9c-0.4,0-0.7-0.3-0.7-0.7s0.3-0.7,0.7-0.7h7.9c0.4,0,0.7,0.3,0.7,0.7S36,59.5,35.6,59.5z"/>
	<path fill="#7A491B" d="M40.1,51.2c-0.2,0-0.4-0.1-0.5-0.2l-4.8-4.8c-0.3-0.3-0.3-0.7,0-1c0.3-0.3,0.7-0.3,1,0l4.8,4.8
		c0.3,0.3,0.3,0.7,0,1C40.5,51.1,40.3,51.2,40.1,51.2z"/>
	<path fill="#7A491B" d="M61.1,72.2c-0.2,0-0.4-0.1-0.5-0.2L56,67.4c-0.3-0.3-0.3-0.7,0-1s0.7-0.3,1,0l4.6,4.6c0.3,0.3,0.3,0.7,0,1
		C61.5,72.1,61.3,72.2,61.1,72.2z"/>
	<path fill="#7A491B" d="M56.5,51.2c-0.2,0-0.4-0.1-0.5-0.2c-0.3-0.3-0.3-0.7,0-1l4.6-4.6c0.3-0.3,0.7-0.3,1,0c0.3,0.3,0.3,0.7,0,1
		L57,51C56.9,51.1,56.7,51.2,56.5,51.2z"/>
	<path fill="#FFE53C" d="M48.2,70.3c6.4,0,11.5-5.2,11.5-11.5s-5.2-11.5-11.5-11.5s-11.5,5.2-11.5,11.5S41.8,70.3,48.2,70.3z"/>
	<path fill="#7A1B2E" d="M48.2,71c-6.7,0-12.3-5.5-12.3-12.3s5.5-12.3,12.3-12.3S60.5,52,60.5,58.7S54.9,71,48.2,71z M48.2,47.9
		c-6,0-10.8,4.9-10.8,10.8c0,6,4.9,10.8,10.8,10.8c6,0,10.8-4.9,10.8-10.8C59,52.8,54.1,47.9,48.2,47.9z"/>
	<path fill="#FFE53C" d="M41.5,54c0.1-0.1,0.2-0.3,0.3-0.4L41.5,54z"/>
	<path fill="#F2962E" d="M41.5,54.7c-0.1,0-0.3,0-0.4-0.1c-0.3-0.3-0.4-0.7-0.1-1c0,0,0.1-0.1,0.1-0.1c0,0,0.1-0.1,0.1-0.1
		c0.2-0.4,0.6-0.5,1-0.3c0.4,0.2,0.5,0.6,0.3,1c-0.1,0.2-0.2,0.3-0.3,0.4c0,0-0.1,0.1-0.1,0.1C41.9,54.6,41.7,54.7,41.5,54.7z"/>
	<path fill="#FFE53C" d="M42.7,64.8C41,63.3,40,61.2,40,58.7c0-0.7,0.1-1.4,0.3-2.1"/>
	<path fill="#F2962E" d="M42.7,65.6c-0.2,0-0.4-0.1-0.5-0.2c-1.9-1.7-3-4.1-3-6.6c0-0.8,0.1-1.5,0.3-2.3c0.1-0.4,0.5-0.6,0.9-0.5
		c0.4,0.1,0.6,0.5,0.5,0.9c-0.2,0.7-0.3,1.3-0.3,1.9c0,2.1,0.9,4.1,2.5,5.6c0.3,0.3,0.3,0.7,0.1,1C43.1,65.5,42.9,65.6,42.7,65.6z"
		/>
</g>
<g id="Layer_1">
	<path fill="#7A491B" d="M68.4,58.5c0,0.4-0.3,0.7-0.7,0.7h-7.6c-0.4,0-0.7-0.3-0.7-0.7s0.3-0.7,0.7-0.7h7.6"/>
	<path fill="#7A491B" d="M60.4,71.5c-0.2,0-0.4-0.1-0.5-0.2l-4.4-4.4c-0.3-0.3-0.3-0.7,0-1c0.3-0.3,0.7-0.3,1,0l4.4,4.4
		c0.3,0.3,0.3,0.7,0,1C60.8,71.4,60.6,71.5,60.4,71.5z"/>
	<path fill="#7A491B" d="M35.8,71.5c-0.2,0-0.4-0.1-0.5-0.2c-0.3-0.3-0.3-0.7,0-1l4.4-4.4c0.3-0.3,0.7-0.3,1,0c0.3,0.3,0.3,0.7,0,1
		l-4.4,4.4C36.1,71.4,36,71.5,35.8,71.5z"/>
	<path fill="#6FB6C6" d="M51.5,75.5H41.3c-3.1,0-5.6-2.5-5.6-5.6c0-3.1,2.5-5.6,5.6-5.6h1.2h0.2v-0.2c0-3.7,3-6.7,6.7-6.7
		c1.1,0,2.2,0.3,3.1,0.7l0.1,0.1l0.1-0.1c1.7-2,4.3-3.3,7.2-3.3c5.2,0,9.4,4.2,9.4,9.4v0.2h0.2h1.2c3.1,0,5.6,2.5,5.6,5.6
		c0,3.1-2.5,5.6-5.6,5.6H60.5"/>
	<path fill="none" stroke="#000000" stroke-width="0.8857" d="M51.5,75.5H41.3c-3.1,0-5.6-2.5-5.6-5.6c0-3.1,2.5-5.6,5.6-5.6h1.2
		h0.2v-0.2c0-3.7,3-6.7,6.7-6.7c1.1,0,2.2,0.3,3.1,0.7l0.1,0.1l0.1-0.1c1.7-2,4.3-3.3,7.2-3.3c5.2,0,9.4,4.2,9.4,9.4v0.2h0.2h1.2
		c3.1,0,5.6,2.5,5.6,5.6c0,3.1-2.5,5.6-5.6,5.6H60.5"/>
	<path fill="#FFFFFF" d="M74.7,69.9h-1.3c0-1.5-1.2-2.7-2.7-2.7V66C72.9,66,74.7,67.7,74.7,69.9z"/>
	<path fill="#FFFFFF" d="M67.6,64.1h-1.3c0-3.5-2.9-6.5-6.5-6.5v-1.3C64.2,56.4,67.6,59.8,67.6,64.1z"/>
	<path fill="#751C32" d="M60.6,76.7c3.4,0,6.7,0,10,0c3.5,0,6.5-2.9,6.5-6.5s-2.9-6.5-6.5-6.5h-0.5c-0.2-5.4-4.7-9.6-10.2-9.6
		c-2.9,0-5.5,1.2-7.5,3.3c-1-0.4-2-0.6-3-0.6c-4,0-7.2,3-7.5,7h-0.5c-3.5,0-6.5,2.9-6.5,6.5s2.9,6.5,6.5,6.5h5.7v-1.3h-5.7
		c-2.9,0-5.2-2.3-5.2-5.2c0-2.9,2.3-5.2,5.2-5.2h1.8v-0.6c0-3.5,2.8-6.3,6.3-6.3c1,0,2,0.2,2.9,0.7l0.5,0.2l0.3-0.4
		c1.7-2,4.2-3.2,6.8-3.2c5,0,9,4,9,9V65h1.8c2.9,0,5.2,2.3,5.2,5.2c0,2.9-2.3,5.2-5.2,5.2h-9.4H61h-6.4c-1.1,0-2.2,0-3.4,0
		c-1.4,0-2.8,0-4.1,0v1.3h3.6h1.3c1.1,0,2.2,0,3.3,0"/>
	<path d="M60.6,75.4H50v0.1L60.6,75.4L60.6,75.4z"/>
</g>
</svg>
