<?xml version="1.0" encoding="utf-8"?>
<!-- Generator: Adobe Illustrator 18.1.1, SVG Export Plug-In . SVG Version: 6.00 Build 0)  -->
<svg version="1.1" xmlns="http://www.w3.org/2000/svg" xmlns:xlink="http://www.w3.org/1999/xlink" x="0px" y="0px"
	 viewBox="24 2 98 98" enable-background="new 24 2 98 98" xml:space="preserve">
<g id="Layer_1">
	<path fill="#FFE53C" d="M77.2,25.8c-4.9,0-9.5,1.5-13.3,4c-0.9,0.6-1.7,1.2-2.5,1.9c0.4,0.3,0.9,0.6,1.3,1c5,4.2,8.3,10.5,8.3,17.6
		c0,7-3.2,13.4-8.3,17.6c-0.4,0.3-0.8,0.7-1.3,1c0.8,0.7,1.6,1.3,2.5,1.9c3.8,2.5,8.4,4,13.3,4c13.5,0,24.4-10.9,24.4-24.4
		C101.6,36.7,90.7,25.8,77.2,25.8z"/>
	<g id="Layer_3">
		<path fill="#F2962E" d="M79.5,72.9c0.6-0.1,2-0.2,2.6-0.3C92.4,70.5,100,61,100,50.2c0-12.3-9.2-22.9-21.7-22.9
			c-0.6,0-2.1-0.1-2.8,0c11.4,1,20.4,11.1,20.4,22.8c0,8.4-4.6,15.8-11.5,19.6c-0.9,0.5-1.8,0.9-2.8,1.3l0,0
			c-0.4,0.2-0.8,0.3-1.3,0.5l-2.5,1.2c0.5,0-1.3,0.4-0.8,0.3L79.5,72.9z"/>
	</g>
	<path fill="#7A1B2E" d="M77.2,24.2c-5.4,0-10.5,1.7-14.6,4.6c-0.9,0.6-1.7,1.3-2.5,2c0.4,0.3,0.9,0.6,1.3,0.9
		c0.4,0.3,0.9,0.6,1.3,1c0.8-0.7,1.6-1.3,2.5-1.8c3.1-1.9,6.7-3.2,10.5-3.4h0c0.2,0,0.5,0,0.7,0c0.2,0,0.5,0,0.7,0h0.1
		c0.1,0,0.2,0,0.2,0c10.3,0.1,19.1,7.1,21.8,16.7c0,0,0,0,0,0.1c0,0,0,0.1,0,0.1c0,0.1,0.1,0.3,0.1,0.4c0.5,1.8,0.7,3.7,0.7,5.6
		c0,4-1.1,7.9-2.9,11.2c-0.1,0.3-0.3,0.5-0.4,0.7c0,0,0,0,0,0c0,0.1-0.1,0.1-0.1,0.2c-3.6,5.8-9.8,9.8-16.8,10.6c-0.1,0-0.2,0-0.3,0
		C78.7,73,78,73,77.2,73c0,0-0.1,0-0.2,0h0c-4.4,0-8.4-1.3-11.9-3.5c-0.9-0.5-1.7-1.2-2.5-1.8c-0.4,0.3-0.8,0.7-1.3,1
		c-0.4,0.3-0.8,0.6-1.3,0.9c0.8,0.7,1.6,1.4,2.5,2c4.2,2.9,9.2,4.5,14.6,4.5c14.3,0,25.9-11.7,25.9-25.9
		C103.1,35.9,91.4,24.2,77.2,24.2z"/>
</g>
<g id="Layer_2">
	<path fill="#7A1B2E" d="M65.1,30.8c-0.4-0.4-0.8-0.7-1.3-1c-0.4-0.3-0.9-0.6-1.3-0.9c-0.9,0.6-1.7,1.3-2.5,2
		c0.4,0.3,0.9,0.6,1.3,0.9c0.4,0.3,0.9,0.6,1.3,1c5,4.2,8.3,10.5,8.3,17.6c0,7-3.2,13.4-8.3,17.6c-0.4,0.3-0.8,0.7-1.3,1
		c-0.4,0.3-0.8,0.6-1.3,0.9c0.8,0.7,1.6,1.4,2.5,2c0.4-0.3,0.9-0.6,1.3-0.9c0.4-0.3,0.8-0.7,1.2-1c5.4-4.8,8.8-11.7,8.8-19.4
		S70.5,35.5,65.1,30.8z"/>
</g>
</svg>
