<?xml version="1.0" encoding="utf-8"?>
<!-- Generator: Adobe Illustrator 18.1.1, SVG Export Plug-In . SVG Version: 6.00 Build 0)  -->
<svg version="1.1" xmlns="http://www.w3.org/2000/svg" xmlns:xlink="http://www.w3.org/1999/xlink" x="0px" y="0px"
	 viewBox="24 2 98 98" enable-background="new 24 2 98 98" xml:space="preserve">
<g id="Layer_1">
	<path fill="#FFE53C" d="M62.6,63.1c-0.1,0-0.1-0.1-0.2-0.2v-0.4L62.6,63.1z"/>
	<path fill="#FFE53C" d="M62.4,71.5c1.2,0.7,2.4,1.2,3.7,1.7c2.5,0.9,5.2,1.4,8.1,1.4c13.5,0,24.4-10.9,24.4-24.4
		S87.7,25.8,74.2,25.8c-2.8,0-5.5,0.5-8.1,1.4c-1.3,0.5-2.5,1-3.7,1.7l1.8,0.8c7.6,3.7,12.9,11.6,12.9,20.6c0,9-5.3,16.9-12.9,20.6
		L62.4,71.5z"/>
	<g id="Layer_3">
		<path fill="#F2962E" d="M76.5,72.9c0.6-0.1,2-0.2,2.6-0.3C89.4,70.5,97,61,97,50.2c0-12.3-9.2-22.9-21.7-22.9
			c-0.6,0-2.1-0.1-2.8,0c11.4,1,20.4,11.1,20.4,22.8c0,8.4-4.6,15.8-11.5,19.6c-0.9,0.5-1.8,0.9-2.8,1.3l0,0
			c-0.4,0.2-0.8,0.3-1.3,0.5l-2.5,1.2c0.5,0-1.3,0.4-0.8,0.3L76.5,72.9z"/>
	</g>
	<path fill="#7A1B2E" d="M62.4,71.5c-0.6,0.2-1.3,0.4-1.9,0.6c1.2,0.7,2.4,1.4,3.7,1.9c3.1,1.3,6.4,2,10,2
		c14.3,0,25.9-11.7,25.9-25.9c0-14.3-11.7-25.9-25.9-25.9c-3.5,0-6.9,0.7-10,2c-1.3,0.5-2.5,1.2-3.7,1.9c0.6,0.2,1.3,0.4,1.9,0.6
		l1.8,0.8c1.2-0.6,2.4-1.1,3.7-1.4c1.5-0.4,3.1-0.7,4.7-0.8h0c0.2,0,0.5,0,0.7-0.1c0.2,0,0.5,0,0.7,0h0.1c0.1,0,0.2,0,0.2,0
		c10.3,0.1,19.1,7.1,21.8,16.7c0,0,0,0,0,0.1c0,0,0,0.1,0,0.1c0,0.1,0.1,0.3,0.1,0.4c0.5,1.8,0.7,3.7,0.7,5.6
		c0,4.1-1.1,7.9-2.9,11.2c-0.1,0.3-0.3,0.5-0.4,0.7c0,0,0,0,0,0c0,0.1-0.1,0.1-0.1,0.2c-3.6,5.7-9.8,9.8-16.8,10.6
		c-0.1,0-0.2,0-0.3,0c-0.8,0.1-1.5,0.1-2.3,0.1c0,0-0.1,0-0.2,0H74c-2.1,0-4.1-0.3-6.1-0.9c-1.3-0.4-2.5-0.8-3.7-1.4L62.4,71.5z"/>
	<path fill="#FFE53C" d="M62.6,63.1c-0.1,0-0.1-0.1-0.2-0.2v-0.4L62.6,63.1z"/>
</g>
<g id="Layer_2">
	<path fill="#7A1B2E" d="M67.9,28.2c-0.6-0.4-1.2-0.7-1.8-1c-0.6-0.3-1.3-0.6-1.9-0.9c-1.3,0.5-2.5,1.2-3.7,1.9
		c0.6,0.2,1.3,0.4,1.9,0.6c0.6,0.2,1.2,0.5,1.8,0.8c7.6,3.7,12.9,11.6,12.9,20.6c0,9-5.3,16.9-12.9,20.6c-0.6,0.3-1.2,0.5-1.8,0.8
		c-0.6,0.2-1.3,0.5-1.9,0.6c1.2,0.7,2.4,1.4,3.7,1.9c0.6-0.3,1.3-0.6,1.9-0.9c0.6-0.3,1.2-0.7,1.8-1c7.3-4.6,12.3-12.7,12.3-22
		S75.3,32.8,67.9,28.2z"/>
</g>
</svg>
