<?xml version="1.0" encoding="utf-8"?>
<!-- Generator: Adobe Illustrator 18.1.1, SVG Export Plug-In . SVG Version: 6.00 Build 0)  -->
<svg version="1.1" id="Layer_1" xmlns="http://www.w3.org/2000/svg" xmlns:xlink="http://www.w3.org/1999/xlink" x="0px" y="0px"
	 viewBox="30 17 110 67" enable-background="new 30 17 110 67" xml:space="preserve">
<path fill="#7A491B" d="M114.5,31.9c0,0.8-0.7,1.5-1.5,1.5H96.2c-0.8,0-1.5-0.7-1.5-1.5c0-0.8,0.7-1.5,1.5-1.5H113"/>
<path fill="#7A491B" d="M96.8,60.4c-0.4,0-0.8-0.2-1.1-0.5L86,50.2c-0.6-0.6-0.6-1.5,0-2.1c0.6-0.6,1.5-0.6,2.1,0l9.7,9.7
	c0.6,0.6,0.6,1.5,0,2.1C97.7,60.2,97.3,60.4,96.8,60.4z"/>
<path fill="#7A491B" d="M42.7,60.4c-0.4,0-0.8-0.2-1.1-0.5c-0.6-0.6-0.6-1.5,0-2.1l9.7-9.7c0.6-0.6,1.5-0.6,2.1,0
	c0.6,0.6,0.6,1.5,0,2.1l-9.7,9.7C43.5,60.2,43.1,60.4,42.7,60.4z"/>
<path fill="#6FB6C6" d="M77.4,69.3H54.9c-6.9,0-12.4-5.6-12.4-12.4c0-6.9,5.6-12.4,12.4-12.4h2.6h0.4v-0.4c0-8.2,6.6-14.8,14.8-14.8
	c2.4,0,4.8,0.6,6.8,1.6l0.3,0.2l0.2-0.3c3.8-4.5,9.4-7.3,15.8-7.3c11.4,0,20.6,9.2,20.6,20.6v0.4h0.4h2.6c6.9,0,12.4,5.6,12.4,12.4
	c0,6.9-5.6,12.4-12.4,12.4H97.2"/>
<path fill="none" stroke="#000000" stroke-width="0.8857" d="M77.4,69.3H54.9c-6.9,0-12.4-5.6-12.4-12.4c0-6.9,5.6-12.4,12.4-12.4
	h2.6h0.4v-0.4c0-8.2,6.6-14.8,14.8-14.8c2.4,0,4.8,0.6,6.8,1.6l0.3,0.2l0.2-0.3c3.8-4.5,9.4-7.3,15.8-7.3c11.4,0,20.6,9.2,20.6,20.6
	v0.4h0.4h2.6c6.9,0,12.4,5.6,12.4,12.4c0,6.9-5.6,12.4-12.4,12.4H97.2"/>
<path fill="#FFFFFF" d="M128.3,56.9h-2.8c0-3.3-2.7-5.9-5.9-5.9v-2.8C124.3,48.2,128.3,52.1,128.3,56.9z"/>
<path fill="#FFFFFF" d="M112.8,44.1H110c0-7.8-6.4-14.2-14.2-14.2v-2.8C105.3,27.1,112.8,34.7,112.8,44.1z"/>
<path fill="#751C32" d="M97.4,71.9c7.4,0,14.8,0,22.1,0c7.8,0,14.2-6.4,14.2-14.2s-6.4-14.2-14.2-14.2h-1.2
	c-0.4-11.9-10.3-21.2-22.4-21.1c-6.3,0.1-12.2,2.6-16.4,7.2c-2.1-0.9-4.3-1.4-6.6-1.4c-8.7,0-15.9,6.7-16.6,15.3h-1.2
	c-7.8,0-14.2,6.4-14.2,14.2s6.4,14.2,14.2,14.2h12.6v-2.8H55.1c-6.3,0-11.5-5.1-11.5-11.5c0-6.3,5.1-11.5,11.5-11.5H59v-1.4
	c0-7.7,6.2-13.9,13.9-13.9c2.2,0,4.4,0.5,6.4,1.5l1,0.5L81,32c3.8-4.4,9.2-7,15-7c10.9,0,19.7,8.8,19.7,19.7v1.4h3.9
	c6.3,0,11.5,5.1,11.5,11.5c0,6.3-5.1,11.5-11.5,11.5H98.9h-0.7h-14c-2.5,0-4.9-0.1-7.4-0.1c-3,0-6.1,0.1-9.1,0.1v2.8h8h2.9
	c2.4,0,4.8,0,7.2,0"/>
<path d="M97.4,68.9H74v0.2h23.4V68.9z"/>
</svg>
