<?xml version="1.0" encoding="utf-8"?>
<!-- Generator: Adobe Illustrator 18.1.1, SVG Export Plug-In . SVG Version: 6.00 Build 0)  -->
<svg version="1.1" id="Layer_1" xmlns="http://www.w3.org/2000/svg" xmlns:xlink="http://www.w3.org/1999/xlink" x="0px" y="0px"
	 viewBox="30 2.6 110 81.4" enable-background="new 30 2.6 110 81.4" xml:space="preserve">
<path fill="#751C32" d="M72.5,74.7c-0.4,0-0.8-0.2-1.1-0.5c-0.6-0.6-0.6-1.6,0-2.2l9.7-10.1c0.6-0.6,1.5-0.6,2.1,0s0.6,1.6,0,2.2
	l-9.7,10.1C73.3,74.5,72.9,74.7,72.5,74.7z"/>
<path fill="#751C32" d="M52.3,74.7c-0.4,0-0.8-0.2-1.1-0.5c-0.6-0.6-0.6-1.6,0-2.2l9.7-10.1c0.6-0.6,1.5-0.6,2.1,0
	c0.6,0.6,0.6,1.6,0,2.2l-9.7,10.1C53.1,74.5,52.7,74.7,52.3,74.7z"/>
<path fill="#751C32" d="M90.7,74.7c-0.4,0-0.8-0.2-1.1-0.5c-0.6-0.6-0.6-1.6,0-2.2l9.7-10.1c0.6-0.6,1.5-0.6,2.1,0s0.6,1.6,0,2.2
	l-9.7,10.1C91.5,74.5,91.1,74.7,90.7,74.7z"/>
<g>
	<path fill="#491C32" d="M83.1,49.7H60.6c-6.9,0-12.4-5.6-12.4-12.4c0-6.9,5.6-12.4,12.4-12.4h2.6h0.4v-0.4c0-8.2,6.1-3.3,14.3-3.3
		c2.4,0,5.3-10.9,7.3-9.9l0.3,0.2l0.2-0.3c3.8-4.5,9.4-7.3,15.8-7.3c11.4,0,20.6,9.2,20.6,20.6v0.4h0.4h2.6
		c6.9,0,12.4,5.6,12.4,12.4c0,6.9-5.6,12.4-12.4,12.4h-22.3"/>
	<path fill="#7A491B" d="M106.1,19.2c0,0.8-0.7,1.5-1.5,1.5H87.8c-0.8,0-1.5-0.7-1.5-1.5c0-0.8,0.7-1.5,1.5-1.5h16.8"/>
	<path fill="#7A491B" d="M88.4,47.7c-0.4,0-0.8-0.2-1.1-0.5l-9.7-9.7c-0.6-0.6-0.6-1.5,0-2.1c0.6-0.6,1.5-0.6,2.1,0l9.7,9.7
		c0.6,0.6,0.6,1.5,0,2.1C89.2,47.5,88.8,47.7,88.4,47.7z"/>
	<path fill="#6FB6C6" d="M69,56.6H46.5c-6.9,0-12.4-5.6-12.4-12.4c0-6.9,5.6-12.4,12.4-12.4h2.6h0.4v-0.4c0-8.2,6.6-14.8,14.8-14.8
		c2.4,0,4.8,0.6,6.8,1.6l0.3,0.2l0.2-0.3c3.8-4.5,9.4-7.3,15.8-7.3c11.4,0,20.6,9.2,20.6,20.6v0.4h0.4h2.6c6.9,0,12.4,5.6,12.4,12.4
		c0,6.9-5.6,12.4-12.4,12.4H88.7"/>
	<path fill="none" stroke="#000000" stroke-width="0.8857" d="M69,56.6H46.5c-6.9,0-12.4-5.6-12.4-12.4c0-6.9,5.6-12.4,12.4-12.4
		h2.6h0.4v-0.4c0-8.2,6.6-14.8,14.8-14.8c2.4,0,4.8,0.6,6.8,1.6l0.3,0.2l0.2-0.3c3.8-4.5,9.4-7.3,15.8-7.3
		c11.4,0,20.6,9.2,20.6,20.6v0.4h0.4h2.6c6.9,0,12.4,5.6,12.4,12.4c0,6.9-5.6,12.4-12.4,12.4H88.7"/>
	<path fill="#FFFFFF" d="M119.8,44.2H117c0-3.3-2.7-5.9-5.9-5.9v-2.8C115.9,35.5,119.8,39.4,119.8,44.2z"/>
	<path fill="#FFFFFF" d="M104.4,31.4h-2.8c0-7.8-6.4-14.2-14.2-14.2v-2.8C96.8,14.4,104.4,22,104.4,31.4z"/>
	<path fill="#751C32" d="M89,59.2c7.4,0,14.8,0,22.1,0c7.8,0,14.2-6.4,14.2-14.2s-6.4-14.2-14.2-14.2h-1.2
		C109.5,18.9,99.6,9.6,87.5,9.7c-6.3,0.1-12.2,2.6-16.4,7.2c-2.1-0.9-4.3-1.4-6.6-1.4c-8.7,0-15.9,6.7-16.6,15.3h-1.2
		c-7.8,0-14.2,6.4-14.2,14.2s6.4,14.2,14.2,14.2h12.6v-2.8H46.7c-6.3,0-11.5-5.1-11.5-11.5c0-6.3,5.1-11.5,11.5-11.5h3.9V32
		c0-7.7,6.2-13.9,13.9-13.9c2.2,0,4.4,0.5,6.4,1.5l1,0.5l0.7-0.8c3.8-4.4,9.2-7,15-7c10.9,0,19.7,8.8,19.7,19.7v1.4h3.9
		c6.3,0,11.5,5.1,11.5,11.5c0,6.3-5.1,11.5-11.5,11.5H90.5h-0.7h-14c-2.5,0-4.9-0.1-7.4-0.1c-3,0-6.1,0.1-9.1,0.1v2.8h8h2.9
		c2.4,0,4.8,0,7.2,0"/>
	<path d="M89,56.2H65.6v0.2H89V56.2z"/>
</g>
</svg>
